<svg xmlns="http://www.w3.org/2000/svg" viewBox="0 0 1024 1024" width="1024" height="1024">
<defs>
	<linearGradient id="bg" x1="0" y1="0" x2="1" y2="1">
		<stop offset="0" stop-color="#1e293b"/><stop offset="0.55" stop-color="#0f172a"/><stop offset="1" stop-color="#090d16"/>
	</linearGradient>
	<radialGradient id="glow" cx="0.5" cy="0.39" r="0.55">
		<stop offset="0" stop-color="#38bdf8" stop-opacity="0.38"/>
		<stop offset="0.6" stop-color="#4ade80" stop-opacity="0.12"/>
		<stop offset="1" stop-color="#38bdf8" stop-opacity="0"/>
	</radialGradient>
</defs>
<rect width="1024" height="1024" rx="228" fill="url(#bg)"/>
<rect width="1024" height="1024" rx="228" fill="url(#glow)"/>
<rect x="6" y="6" width="1012" height="1012" rx="222" fill="none" stroke="#38bdf8" stroke-opacity="0.16" stroke-width="12"/>
<polygon points="512.0,101.8 582.5,142.5 512.0,183.2 441.5,142.5" fill="#ffffff" stroke="#ffffff" stroke-width="9.27" stroke-linejoin="round"/><polygon points="422.8,153.3 493.3,194.0 422.8,234.7 352.3,194.0" fill="#ffffff" stroke="#ffffff" stroke-width="9.27" stroke-linejoin="round"/><polygon points="333.6,204.8 404.1,245.5 333.6,286.2 263.1,245.5" fill="#ffffff" stroke="#ffffff" stroke-width="9.27" stroke-linejoin="round"/><polygon points="601.2,153.3 671.7,194.0 601.2,234.7 530.7,194.0" fill="#ffffff" stroke="#ffffff" stroke-width="9.27" stroke-linejoin="round"/><polygon points="512.0,204.8 582.5,245.5 512.0,286.2 441.5,245.5" fill="#ffffff" stroke="#ffffff" stroke-width="9.27" stroke-linejoin="round"/><polygon points="422.8,256.3 493.3,297.0 422.8,337.7 352.3,297.0" fill="#ffffff" stroke="#ffffff" stroke-width="9.27" stroke-linejoin="round"/><polygon points="690.4,204.8 760.9,245.5 690.4,286.2 619.9,245.5" fill="#ffffff" stroke="#ffffff" stroke-width="9.27" stroke-linejoin="round"/><polygon points="601.2,256.3 671.7,297.0 601.2,337.7 530.7,297.0" fill="#ffffff" stroke="#ffffff" stroke-width="9.27" stroke-linejoin="round"/><polygon points="512.0,307.8 582.5,348.5 512.0,389.2 441.5,348.5" fill="#ffffff" stroke="#ffffff" stroke-width="9.27" stroke-linejoin="round"/><polygon points="253.8,467.7 324.2,508.4 324.2,589.8 253.8,549.1" fill="#da6363" stroke="#da6363" stroke-width="9.27" stroke-linejoin="round"/><polygon points="253.8,364.7 324.2,405.4 324.2,486.8 253.8,446.1" fill="#d36060" stroke="#d36060" stroke-width="9.27" stroke-linejoin="round"/><polygon points="253.8,261.7 324.2,302.4 324.2,383.8 253.8,343.1" fill="#cb5c5c" stroke="#cb5c5c" stroke-width="9.27" stroke-linejoin="round"/><polygon points="343.0,519.2 413.4,559.9 413.4,641.3 343.0,600.6" fill="#da6363" stroke="#da6363" stroke-width="9.27" stroke-linejoin="round"/><polygon points="343.0,416.2 413.4,456.9 413.4,538.3 343.0,497.6" fill="#d36060" stroke="#d36060" stroke-width="9.27" stroke-linejoin="round"/><polygon points="343.0,313.2 413.4,353.9 413.4,435.3 343.0,394.6" fill="#cb5c5c" stroke="#cb5c5c" stroke-width="9.27" stroke-linejoin="round"/><polygon points="432.2,570.7 502.6,611.4 502.6,692.8 432.2,652.1" fill="#da6363" stroke="#da6363" stroke-width="9.27" stroke-linejoin="round"/><polygon points="432.2,467.7 502.6,508.4 502.6,589.8 432.2,549.1" fill="#d36060" stroke="#d36060" stroke-width="9.27" stroke-linejoin="round"/><polygon points="432.2,364.7 502.6,405.4 502.6,486.8 432.2,446.1" fill="#cb5c5c" stroke="#cb5c5c" stroke-width="9.27" stroke-linejoin="round"/><polygon points="770.2,467.7 699.8,508.4 699.8,589.8 770.2,549.1" fill="#35b4ec" stroke="#35b4ec" stroke-width="9.27" stroke-linejoin="round"/><polygon points="770.2,364.7 699.8,405.4 699.8,486.8 770.2,446.1" fill="#33ade3" stroke="#33ade3" stroke-width="9.27" stroke-linejoin="round"/><polygon points="770.2,261.7 699.8,302.4 699.8,383.8 770.2,343.1" fill="#31a7db" stroke="#31a7db" stroke-width="9.27" stroke-linejoin="round"/><polygon points="681.0,519.2 610.6,559.9 610.6,641.3 681.0,600.6" fill="#35b4ec" stroke="#35b4ec" stroke-width="9.27" stroke-linejoin="round"/><polygon points="681.0,416.2 610.6,456.9 610.6,538.3 681.0,497.6" fill="#33ade3" stroke="#33ade3" stroke-width="9.27" stroke-linejoin="round"/><polygon points="681.0,313.2 610.6,353.9 610.6,435.3 681.0,394.6" fill="#31a7db" stroke="#31a7db" stroke-width="9.27" stroke-linejoin="round"/><polygon points="591.8,570.7 521.4,611.4 521.4,692.8 591.8,652.1" fill="#35b4ec" stroke="#35b4ec" stroke-width="9.27" stroke-linejoin="round"/><polygon points="591.8,467.7 521.4,508.4 521.4,589.8 591.8,549.1" fill="#33ade3" stroke="#33ade3" stroke-width="9.27" stroke-linejoin="round"/><polygon points="591.8,364.7 521.4,405.4 521.4,486.8 591.8,446.1" fill="#31a7db" stroke="#31a7db" stroke-width="9.27" stroke-linejoin="round"/>
<text x="512" y="880" font-family='-apple-system, "SF Pro Display", "Helvetica Neue", Inter, Arial, sans-serif' font-size="144" font-weight="800" text-anchor="middle">
			<tspan fill="#38bdf8" letter-spacing="2">EH</tspan> <tspan fill="#f8fafc" font-weight="600" letter-spacing="8">TIMER</tspan>
		</text>
</svg>